<svg xmlns="http://www.w3.org/2000/svg" width="396" height="62.962" viewBox="0 0 396 62.962">
  <g id="Grupo_158" data-name="Grupo 158" transform="translate(-95 -29)">
    <g id="Grupo_143" data-name="Grupo 143" transform="translate(329.061 46)">
      <path id="Caminho_341" data-name="Caminho 341" d="M58.454,1072.227a1.321,1.321,0,0,1-.406-.97v-24.786a1.306,1.306,0,0,1,.406-.987,1.354,1.354,0,0,1,.969-.388H75.96a1.34,1.34,0,0,1,.987.388,1.3,1.3,0,0,1,.388.952,1.237,1.237,0,0,1-.388.934,1.372,1.372,0,0,1-.987.37H60.8v9.731H71.834a1.34,1.34,0,0,1,.987.388,1.3,1.3,0,0,1,.388.952,1.267,1.267,0,0,1-.405.952,1.352,1.352,0,0,1-.969.388H60.8v9.837H75.96a1.373,1.373,0,0,1,.987.37,1.237,1.237,0,0,1,.388.934,1.3,1.3,0,0,1-.388.952,1.339,1.339,0,0,1-.987.388H59.423A1.322,1.322,0,0,1,58.454,1072.227Z" transform="translate(-58.048 -1045.096)" fill="#fff"/>
      <path id="Caminho_342" data-name="Caminho 342" d="M145.748,1045.484a1.338,1.338,0,0,1,.388.987v24.786a1.353,1.353,0,0,1-.388.97,1.266,1.266,0,0,1-.952.405,1.363,1.363,0,0,1-1-.405,1.322,1.322,0,0,1-.405-.97V1051.3l-9.8,20.027a1.34,1.34,0,0,1-1.2.67,1.311,1.311,0,0,1-1.269-.846l-9.766-19.533v19.639a1.353,1.353,0,0,1-.388.97,1.307,1.307,0,0,1-.987.405,1.384,1.384,0,0,1-1.375-1.375v-24.786a1.307,1.307,0,0,1,.405-.987,1.422,1.422,0,0,1,2.2.318l11.283,22.424,11.071-22.424a1.355,1.355,0,0,1,1.234-.705A1.3,1.3,0,0,1,145.748,1045.484Z" transform="translate(-94.201 -1045.096)" fill="#fff"/>
      <path id="Caminho_343" data-name="Caminho 343" d="M247.6,1071.469a1.039,1.039,0,0,1-.388.846,1.564,1.564,0,0,1-1.022.317,1.3,1.3,0,0,1-.705-.177,1.528,1.528,0,0,1-.494-.529l-6.347-10.084h-5.818v9.414a1.375,1.375,0,1,1-2.75,0v-24.786a1.327,1.327,0,0,1,1.375-1.375h6.593a9.559,9.559,0,0,1,4.583,1.076,7.949,7.949,0,0,1,3.155,3.014,8.5,8.5,0,0,1,1.146,4.407,7.912,7.912,0,0,1-5.43,7.686l5.782,9.238A1.9,1.9,0,0,1,247.6,1071.469Zm-9.555-12.27a6.965,6.965,0,0,0,3.191-.723,5.46,5.46,0,0,0,2.221-1.992,5.338,5.338,0,0,0,.793-2.891,5.839,5.839,0,0,0-.793-3.033,5.454,5.454,0,0,0-2.2-2.08,6.8,6.8,0,0,0-3.208-.74h-5.218V1059.2Z" transform="translate(-160.758 -1045.096)" fill="#fff"/>
      <path id="Caminho_344" data-name="Caminho 344" d="M284.557,1072.227a1.321,1.321,0,0,1-.406-.97v-24.786a1.306,1.306,0,0,1,.406-.987,1.353,1.353,0,0,1,.969-.388h16.536a1.339,1.339,0,0,1,.987.388,1.3,1.3,0,0,1,.388.952,1.236,1.236,0,0,1-.388.934,1.371,1.371,0,0,1-.987.37H286.9v9.731h11.036a1.34,1.34,0,0,1,.987.388,1.3,1.3,0,0,1,.388.952,1.267,1.267,0,0,1-.405.952,1.353,1.353,0,0,1-.969.388H286.9v9.837h15.161a1.372,1.372,0,0,1,.987.37,1.236,1.236,0,0,1,.388.934,1.293,1.293,0,0,1-.388.952,1.337,1.337,0,0,1-.987.388H285.526A1.321,1.321,0,0,1,284.557,1072.227Z" transform="translate(-193.045 -1045.096)" fill="#fff"/>
      <path id="Caminho_345" data-name="Caminho 345" d="M345.089,1072.245a1.334,1.334,0,0,1-.388-.987v-24.786a1.327,1.327,0,0,1,1.375-1.375h6.346a14.294,14.294,0,0,1,7.122,1.763,12.509,12.509,0,0,1,4.883,4.883,15.369,15.369,0,0,1,0,14.226,12.47,12.47,0,0,1-4.883,4.9,14.286,14.286,0,0,1-7.122,1.763h-6.346A1.336,1.336,0,0,1,345.089,1072.245Zm7.334-2.08a11.106,11.106,0,0,0,5.712-1.464,10.342,10.342,0,0,0,3.914-4.037,12.7,12.7,0,0,0,0-11.635,10.223,10.223,0,0,0-3.914-4.019,11.216,11.216,0,0,0-5.712-1.446h-4.971v22.6Z" transform="translate(-229.197 -1045.096)" fill="#fff"/>
      <path id="Caminho_346" data-name="Caminho 346" d="M412.483,1072.227a1.321,1.321,0,0,1-.406-.97v-24.786a1.306,1.306,0,0,1,.406-.987,1.353,1.353,0,0,1,.969-.388h16.536a1.339,1.339,0,0,1,.987.388,1.3,1.3,0,0,1,.388.952,1.236,1.236,0,0,1-.388.934,1.371,1.371,0,0,1-.987.37H414.827v9.731h11.036a1.34,1.34,0,0,1,.987.388,1.3,1.3,0,0,1,.388.952,1.267,1.267,0,0,1-.405.952,1.353,1.353,0,0,1-.969.388H414.827v9.837h15.161a1.372,1.372,0,0,1,.987.37,1.236,1.236,0,0,1,.388.934,1.294,1.294,0,0,1-.388.952,1.338,1.338,0,0,1-.987.388H413.452A1.321,1.321,0,0,1,412.483,1072.227Z" transform="translate(-269.424 -1045.096)" fill="#fff"/>
    </g>
    <g id="Grupo_155" data-name="Grupo 155" transform="translate(95 29)">
      <g id="Grupo_144" data-name="Grupo 144" transform="translate(40.764 48.24)">
        <path id="Caminho_347" data-name="Caminho 347" d="M317.386,852.832l4.259-4.259V848.5H306.99A14.609,14.609,0,0,1,317.386,852.832Z" transform="translate(-306.99 -848.505)" fill="#fff"/>
      </g>
      <g id="Grupo_154" data-name="Grupo 154">
        <g id="Grupo_145" data-name="Grupo 145" transform="translate(26.109 48.24)">
          <path id="Caminho_348" data-name="Caminho 348" d="M263.87,848.5H249.215v.067l4.259,4.26A14.609,14.609,0,0,1,263.87,848.5Z" transform="translate(-249.215 -848.505)" fill="#fff"/>
        </g>
        <g id="Grupo_146" data-name="Grupo 146" transform="translate(34.365 53.887)">
          <path id="Caminho_349" data-name="Caminho 349" d="M288.161,875.607a4.153,4.153,0,0,1,2.979,1.256l3.42-3.42a8.991,8.991,0,0,0-12.8,0l3.42,3.42A4.153,4.153,0,0,1,288.161,875.607Z" transform="translate(-281.761 -870.767)" fill="#fff"/>
        </g>
        <g id="Grupo_147" data-name="Grupo 147" transform="translate(14.123 25.248)">
          <path id="Caminho_350" data-name="Caminho 350" d="M228.538,763.38a31.767,31.767,0,0,1,22.731,9.537l3.977-3.977a37.584,37.584,0,0,0-53.282,0l3.909,3.909A31.766,31.766,0,0,1,228.538,763.38Z" transform="translate(-201.964 -757.867)" fill="#fff"/>
        </g>
        <g id="Grupo_148" data-name="Grupo 148" transform="translate(23.915 36.408)">
          <path id="Caminho_351" data-name="Caminho 351" d="M272.477,806.659q-.438-.309-.888-.6l-.063-.04a26.448,26.448,0,0,0-2.868-1.6l-.09-.043q-.471-.223-.951-.429l-.1-.042q-.491-.207-.991-.4l-.015-.006q-.5-.188-1.018-.356l-.067-.022q-.493-.16-.995-.3l-.148-.041q-.492-.135-.991-.251l-.143-.032c-.344-.078-.69-.15-1.038-.214l-.027,0c-.344-.063-.69-.117-1.039-.166l-.133-.019c-.339-.046-.68-.084-1.022-.116l-.189-.018c-.34-.03-.683-.053-1.027-.07l-.164-.007c-.361-.015-.723-.024-1.087-.024s-.726.01-1.087.024l-.164.007c-.344.016-.686.04-1.026.07l-.19.018c-.342.032-.683.07-1.022.116l-.133.019c-.348.049-.695.1-1.039.166l-.027,0c-.349.064-.695.136-1.038.214l-.143.032q-.5.116-.991.251l-.148.041q-.5.14-1,.3l-.067.022q-.513.168-1.018.356l-.015.006q-.5.188-.991.4l-.1.042q-.48.205-.951.429l-.091.043a26.465,26.465,0,0,0-2.868,1.6l-.063.04q-.45.291-.888.6l-.042.03q-.906.642-1.757,1.357h33.712q-.85-.715-1.757-1.357Z" transform="translate(-240.565 -801.861)" fill="#fff"/>
        </g>
        <g id="Grupo_149" data-name="Grupo 149" transform="translate(18.066 30.761)">
          <path id="Caminho_352" data-name="Caminho 352" d="M225.363,789.864l.042-.029q.43-.3.873-.574l.062-.038a26.138,26.138,0,0,1,2.819-1.532l.089-.042q.463-.214.935-.41l.1-.041c.322-.132.646-.259.975-.379l.015-.005q.5-.18,1-.34l.066-.022q.485-.153.978-.286l.145-.039q.484-.129.974-.24l.14-.031c.338-.074.678-.144,1.02-.2l.027,0q.507-.09,1.021-.159l.131-.018q.5-.066,1-.111l.186-.017q.5-.042,1.009-.067l.161-.006c.355-.014.711-.023,1.069-.023s.714.009,1.069.023l.161.006q.508.024,1.009.067l.186.017q.5.047,1,.111l.131.018q.514.07,1.021.159l.027,0c.343.061.682.13,1.02.2l.14.031q.49.11.974.24l.145.039q.493.134.978.286l.066.022q.5.16,1,.34l.015.005c.328.12.653.247.975.379l.1.041q.472.2.935.41l.089.042a26.169,26.169,0,0,1,2.819,1.532l.061.038q.443.279.873.574l.041.029a26.394,26.394,0,0,1,3.851,3.242l4-4a31.859,31.859,0,0,0-45.4,0l4,4A26.4,26.4,0,0,1,225.363,789.864Z" transform="translate(-217.508 -779.599)" fill="none"/>
        </g>
        <g id="Grupo_150" data-name="Grupo 150" transform="translate(30.368 48.24)">
          <path id="Caminho_353" data-name="Caminho 353" d="M266.007,852.832l4,4a8.991,8.991,0,0,1,12.8,0l4-4a14.651,14.651,0,0,0-20.791,0Z" transform="translate(-266.007 -848.505)" fill="none"/>
        </g>
        <g id="Grupo_151" data-name="Grupo 151" transform="translate(22.078 41.295)">
          <path id="Caminho_354" data-name="Caminho 354" d="M269.332,822.425H235.441c-.7,0,0-.888.6-1.3-1.774,1.223-1.676,1.882-2.714,2.981l4.031,4.031v-.067h29.311v.067l4.245-4.245A16.915,16.915,0,0,0,269.332,822.425Z" transform="translate(-233.325 -821.128)" fill="none"/>
        </g>
        <g id="Grupo_152" data-name="Grupo 152" transform="translate(37.785 58.727)">
          <path id="Caminho_355" data-name="Caminho 355" d="M301.2,891.1a4.161,4.161,0,0,0-5.959,0l2.979,2.979Z" transform="translate(-295.245 -889.849)" fill="none"/>
        </g>
        <g id="Grupo_153" data-name="Grupo 153">
          <path id="Caminho_356" data-name="Caminho 356" d="M156.461,689.866a1.5,1.5,0,0,1-1.059-2.556,44.692,44.692,0,0,1,60.087-2.833l.229.2a2.412,2.412,0,0,0,3.42-3.4l-.088-.084a49.121,49.121,0,0,0-63.387-.644l-.2.149A5.5,5.5,0,0,1,147.9,672.7l.273-.262c.292-.248.379-.318.553-.458l.259-.208a60.647,60.647,0,0,1,80.96,4.318,1.5,1.5,0,1,1-2.117,2.117,57.488,57.488,0,0,0-76.959-4.107l-.271.218c-.144.115-.22.176-.444.366l-.148.144a2.509,2.509,0,0,0,3.56,3.537l.2-.2.155-.068a52.286,52.286,0,0,1,33.058-11.77l.518,0a52.279,52.279,0,0,1,33.539,12.61l.213.2a5.407,5.407,0,0,1-7.591,7.7l-.075-.062a41.484,41.484,0,0,0-56.061,2.643A1.494,1.494,0,0,1,156.461,689.866Z" transform="translate(-146.287 -658.332)" fill="#fff"/>
        </g>
      </g>
    </g>
    <g id="Grupo_156" data-name="Grupo 156" transform="translate(197 46)">
      <path id="Caminho_357" data-name="Caminho 357" d="M58.019,916.076h8.844v16.978a4.7,4.7,0,0,0,.982,3.356,4.474,4.474,0,0,0,3.282,1,4.368,4.368,0,0,0,3.207-.982,4.748,4.748,0,0,0,.963-3.375V916.076h8.844v17.67q0,5.18-3.338,7.909t-9.676,2.73q-6.377,0-9.742-2.739t-3.366-7.9Z" transform="translate(-58.019 -916.076)" fill="#fff"/>
      <path id="Caminho_358" data-name="Caminho 358" d="M167.862,943.619V916.076h20.83v6.937H176.706v4.263h9.536v6.657h-9.536v9.686Z" transform="translate(-136.58 -916.076)" fill="#fff"/>
      <path id="Caminho_359" data-name="Caminho 359" d="M260.825,943.619h-8V916.076h10.77l3.814,13.743q.074.28.3,1.281t.636,2.758q.261-1.384.486-2.422t.392-1.561l3.908-13.8H283.88v27.543h-8l.075-13.557q0-1.234.009-2.4t.028-2.421q-.449,2.131-1.084,4.656l-.056.243-3.4,13.482h-6.171l-3.441-13.182q-.243-.9-.486-2.057t-.636-3.141q.056,1.777.084,3.048t.028,2.038Z" transform="translate(-197.344 -916.076)" fill="#fff"/>
      <path id="Caminho_360" data-name="Caminho 360" d="M380.573,943.619V923.331h-7.928v-7.255h24.7v7.255h-7.928v20.288Z" transform="translate(-283.043 -916.076)" fill="#fff"/>
    </g>
  </g>
</svg>
